<svg xmlns="http://www.w3.org/2000/svg" viewBox="0 0 300 300"><g id="レイヤー_2" data-name="レイヤー 2"><g id="レイヤー_1-2" data-name="レイヤー 1"><g id="グループ_125" data-name="グループ 125"><path id="前面オブジェクトで型抜き_1" data-name="前面オブジェクトで型抜き 1" d="M126.58,300h0A151.14,151.14,0,0,1,91.64,11.91,149.21,149.21,0,0,1,256.07,44.23a151.56,151.56,0,0,1,7.55,205.22A149.78,149.78,0,0,1,173.48,300V194.53H208.4l6.68-43.6H173.47V122.66a24.54,24.54,0,0,1,5.22-16.28,24.05,24.05,0,0,1,19.21-7.31h18.9V61.92A232.55,232.55,0,0,0,183.27,59a56.43,56.43,0,0,0-41.2,15.15,60.16,60.16,0,0,0-15.48,43.54v33.22H88.51v43.59H126.6V300Z"/></g></g></g></svg>