<svg xmlns="http://www.w3.org/2000/svg" viewBox="0 0 300 300"><g id="レイヤー_2" data-name="レイヤー 2"><g id="レイヤー_1-2" data-name="レイヤー 1"><path id="パス_2701" data-name="パス 2701" d="M150,0A150,150,0,1,0,300,150,150,150,0,0,0,150,0Zm75.34,121.56c.07,1.55.1,3.11.1,4.68A102.85,102.85,0,0,1,67.13,212.88a75.27,75.27,0,0,0,8.63.5,72.5,72.5,0,0,0,44.91-15.48,36.18,36.18,0,0,1-33.78-25.11,36,36,0,0,0,16.34-.62,36.18,36.18,0,0,1-29-35.45v-.46a35.94,35.94,0,0,0,16.38,4.53A36.18,36.18,0,0,1,79.41,92.51a102.69,102.69,0,0,0,74.53,37.78,36.18,36.18,0,0,1,61.63-33,72.48,72.48,0,0,0,22.94-8.78,36.31,36.31,0,0,1-15.88,20,72.43,72.43,0,0,0,20.76-5.69A73.68,73.68,0,0,1,225.34,121.56Z"/></g></g></svg>